<?xml version="1.0" encoding="UTF-8"?>
<svg version="1.1" xmlns="http://www.w3.org/2000/svg" width="129" height="160">
<path d="M0 0 C6.6 0 13.2 0 20 0 C23.67003343 8.56409134 26.89014289 17.17985901 29.86328125 26.0078125 C30.30426235 27.3087591 30.74552671 28.60960972 31.1870575 29.91036987 C32.10139477 32.60700196 33.01286957 35.30457801 33.92211914 38.00292969 C35.08839638 41.46351943 36.26122095 44.92184847 37.4360323 48.37954903 C38.34335232 51.05184196 39.24768305 53.72513864 40.15105247 56.39876938 C40.79219635 58.29492304 41.43555019 60.19032898 42.07893372 62.08572388 C42.4632103 63.22806488 42.84748688 64.37040588 43.2434082 65.54736328 C43.58362503 66.55485626 43.92384186 67.56234924 44.27436829 68.60037231 C45 71 45 71 45 73 C40.05 73 35.1 73 30 73 C26 60.375 26 60.375 26 57 C15.77 57 5.54 57 -5 57 C-5.66 59.97 -6.32 62.94 -7 66 C-7.94280904 68.3570226 -8.92378945 70.70082291 -10 73 C-14.62 73 -19.24 73 -24 73 C-22.52702206 65.55531786 -20.26414628 58.5613776 -17.75390625 51.40625 C-17.13623634 49.62619568 -17.13623634 49.62619568 -16.50608826 47.81018066 C-15.41756176 44.67576029 -14.32482922 41.54287571 -13.2298584 38.41070557 C-12.12325287 35.24239697 -11.02164252 32.07235362 -9.91992188 28.90234375 C-8.676867 25.32575144 -7.43322777 21.74938255 -6.18544006 18.17443848 C-5.81172775 17.10302612 -5.43801544 16.03161377 -5.05297852 14.92773438 C-4.7281398 13.99779663 -4.40330109 13.06785889 -4.06861877 12.10974121 C-2.68473646 8.08256522 -1.34659856 4.03979567 0 0 Z M10 11 C8.43157477 15.82321095 6.86504315 20.64703108 5.30029297 25.47143555 C4.76728995 27.11385882 4.23376229 28.75611193 3.69970703 30.39819336 C2.93385277 32.75330178 2.16986385 35.1090081 1.40625 37.46484375 C1.16563843 38.20339096 0.92502686 38.94193817 0.67712402 39.7028656 C-0.49387653 42.79054086 -0.49387653 42.79054086 -1 46 C6.59 46 14.18 46 22 46 C18.37 34.45 14.74 22.9 11 11 C10.67 11 10.34 11 10 11 Z " fill="#D9EAFA" transform="translate(77,48)"/>
<path d="M0 0 C0.33 0 0.66 0 1 0 C1 7.59 1 15.18 1 23 C-2.22364792 18.16452812 -2.37913691 12.82246367 -1.61328125 7.12109375 C-1.13336376 4.72831363 -0.60837639 2.36311491 0 0 Z " fill="#D8E6F2" transform="translate(128,83)"/>
<path d="M0 0 C0.66 0.99 1.32 1.98 2 3 C1.34 3 0.68 3 0 3 C0 3.66 0 4.32 0 5 C0.94875 4.79375 1.8975 4.5875 2.875 4.375 C4.421875 4.189375 4.421875 4.189375 6 4 C6.66 4.66 7.32 5.32 8 6 C3.71 6 -0.58 6 -5 6 C-4.34 4.35 -3.68 2.7 -3 1 C-2.01 1.33 -1.02 1.66 0 2 C0 1.34 0 0.68 0 0 Z " fill="#E3F0FC" transform="translate(113,115)"/>
<path d="M0 0 C1.65 0 3.3 0 5 0 C5 3.61029169 4.03907418 6.55806676 3 10 C0.70366176 6.55549263 0.45983515 4.06187717 0 0 Z " fill="#D4E3F2" transform="translate(90,65)"/>
<path d="M0 0 C0.33 0.66 0.66 1.32 1 2 C1.66 2.33 2.32 2.66 3 3 C3.66 3.33 4.32 3.66 5 4 C4.34 5.65 3.68 7.3 3 9 C0.87491756 5.81237635 0.4979837 3.73487777 0 0 Z " fill="#D2DDEB" transform="translate(105,112)"/>
</svg>
